<?xml version="1.0" encoding="utf-8"?>
<!-- Generator: Adobe Illustrator 25.0.0, SVG Export Plug-In . SVG Version: 6.00 Build 0)  -->
<svg version="1.1" id="Layer_1" xmlns="http://www.w3.org/2000/svg" xmlns:xlink="http://www.w3.org/1999/xlink" x="0px" y="0px"
	 viewBox="0 0 1064 342.67" style="enable-background:new 0 0 1064 342.67;" xml:space="preserve">
<style type="text/css">
	.st0{fill:#0E185F;}
	.st1{fill:#2FA4FF;}
	.st2{clip-path:url(#SVGID_2_);}
	.st3{fill:#46778C;}
	.st4{fill:none;stroke:#383838;stroke-width:2;stroke-linecap:round;stroke-miterlimit:10;}
</style>
<g>
	<g>
		<path class="st0" d="M469.83,119.75l2.24-20.74h-0.89l-6.42,16.71l-22.23,38.94h-6.56l-23.42-39.09l-6.56-16.56h-0.75l2.98,20.59
			v54.31h-19.4V69.47h18.65l27.9,47.74l4.92,11.94h0.6l4.48-12.23l26.41-47.44h18.5v104.43h-20.44V119.75z"/>
		<path class="st0" d="M507.27,103.63c3.98-1.79,8.7-3.21,14.17-4.25c5.47-1.04,11.19-1.57,17.16-1.57c5.17,0,9.5,0.62,12.98,1.86
			c3.48,1.24,6.24,3.01,8.28,5.3c2.04,2.29,3.48,5.02,4.33,8.2c0.84,3.18,1.27,6.76,1.27,10.74c0,4.38-0.15,8.78-0.45,13.2
			c-0.3,4.43-0.47,8.78-0.52,13.05c-0.05,4.28,0.07,8.43,0.37,12.46c0.3,4.03,1.04,7.83,2.24,11.41h-15.81l-3.13-10.29h-0.75
			c-1.99,3.08-4.75,5.74-8.28,7.98c-3.53,2.24-8.08,3.36-13.65,3.36c-3.48,0-6.61-0.52-9.4-1.57c-2.79-1.04-5.17-2.54-7.16-4.48
			c-1.99-1.94-3.53-4.23-4.62-6.86c-1.1-2.63-1.64-5.59-1.64-8.88c0-4.57,1.02-8.43,3.06-11.56c2.04-3.13,4.97-5.67,8.8-7.61
			c3.83-1.94,8.4-3.28,13.72-4.03c5.32-0.74,11.26-0.97,17.83-0.67c0.7-5.57,0.3-9.57-1.19-12.01c-1.49-2.44-4.83-3.66-10-3.66
			c-3.88,0-7.98,0.4-12.31,1.19c-4.33,0.8-7.88,1.84-10.67,3.13L507.27,103.63z M531.89,159.13c3.88,0,6.96-0.87,9.25-2.61
			c2.29-1.74,3.98-3.6,5.07-5.59v-9.7c-3.08-0.3-6.04-0.35-8.88-0.15c-2.83,0.2-5.35,0.65-7.53,1.34c-2.19,0.7-3.93,1.69-5.22,2.99
			c-1.29,1.29-1.94,2.93-1.94,4.92c0,2.79,0.82,4.95,2.46,6.49C526.74,158.37,529,159.13,531.89,159.13z"/>
		<path class="st0" d="M573.96,99.31h10.29V85.29l19.4-5.52v19.54h18.2v16.41h-18.2v28.64c0,5.17,0.52,8.88,1.57,11.11
			c1.04,2.24,3.01,3.36,5.89,3.36c1.99,0,3.7-0.2,5.15-0.6c1.44-0.39,3.06-0.99,4.85-1.79l3.43,14.92c-2.69,1.29-5.82,2.38-9.4,3.28
			c-3.58,0.9-7.21,1.34-10.89,1.34c-6.86,0-11.91-1.77-15.14-5.3c-3.23-3.53-4.85-9.32-4.85-17.38v-37.59h-10.29V99.31z"/>
		<path class="st0" d="M624.98,99.31h10.29V85.29l19.4-5.52v19.54h18.2v16.41h-18.2v28.64c0,5.17,0.52,8.88,1.57,11.11
			c1.04,2.24,3.01,3.36,5.89,3.36c1.99,0,3.7-0.2,5.15-0.6c1.44-0.39,3.06-0.99,4.85-1.79l3.43,14.92c-2.69,1.29-5.82,2.38-9.4,3.28
			c-3.58,0.9-7.21,1.34-10.89,1.34c-6.86,0-11.91-1.77-15.14-5.3c-3.23-3.53-4.85-9.32-4.85-17.38v-37.59h-10.29V99.31z"/>
		<path class="st0" d="M730.46,173.91v-42.37c0-6.07-0.85-10.44-2.54-13.13c-1.69-2.69-4.77-4.03-9.25-4.03
			c-3.28,0-6.29,1.12-9.02,3.36c-2.74,2.24-4.55,5.1-5.45,8.58v47.59h-19.39V69.47h19.39v38.19h0.6c2.39-3.18,5.32-5.72,8.8-7.61
			c3.48-1.89,7.91-2.83,13.28-2.83c3.78,0,7.11,0.5,9.99,1.49c2.88,1,5.3,2.64,7.24,4.92c1.94,2.29,3.38,5.4,4.33,9.32
			c0.95,3.93,1.42,8.78,1.42,14.55v46.4H730.46z"/>
		<path class="st0" d="M825.79,167.49c-2.98,2.39-7.04,4.4-12.16,6.04c-5.12,1.64-10.57,2.46-16.34,2.46
			c-12.03,0-20.84-3.51-26.41-10.52c-5.57-7.01-8.36-16.64-8.36-28.87c0-13.13,3.13-22.98,9.4-29.54
			c6.27-6.56,15.07-9.84,26.41-9.84c3.78,0,7.46,0.5,11.04,1.49c3.58,1,6.76,2.64,9.55,4.92c2.78,2.29,5.02,5.37,6.71,9.25
			c1.69,3.88,2.54,8.7,2.54,14.47c0,2.09-0.13,4.33-0.37,6.71c-0.25,2.39-0.62,4.88-1.12,7.46h-44.76
			c0.3,6.27,1.91,10.99,4.85,14.17c2.93,3.18,7.68,4.77,14.25,4.77c4.08,0,7.73-0.62,10.97-1.86c3.23-1.24,5.69-2.51,7.39-3.8
			L825.79,167.49z M798.04,112.74c-5.07,0-8.83,1.52-11.26,4.55c-2.44,3.04-3.9,7.09-4.4,12.16h27.75c0.4-5.37-0.42-9.5-2.46-12.38
			C805.62,114.18,802.42,112.74,798.04,112.74z"/>
		<path class="st0" d="M895.17,99.31l13.57,38.19l2.69,12.38h0.6l2.09-12.53l9.55-38.04h17.75l-22.98,75.34h-14.32l-15.07-41.77
			l-1.94-9.4h-0.74l-1.79,9.55l-14.32,41.62h-14.77l-24.02-75.34h21.03l10.89,37.45l1.79,13.28h0.75l2.54-13.43l12.38-37.3H895.17z"
			/>
		<path class="st0" d="M979.6,153.32c0-1.99-0.85-3.58-2.54-4.77c-1.69-1.19-3.78-2.29-6.27-3.28c-2.49-0.99-5.22-2.02-8.2-3.06
			c-2.99-1.04-5.72-2.49-8.21-4.33c-2.49-1.84-4.58-4.18-6.27-7.01c-1.69-2.83-2.54-6.49-2.54-10.97c0-7.36,2.19-12.98,6.57-16.86
			c4.38-3.88,10.69-5.82,18.95-5.82c5.67,0,10.79,0.6,15.37,1.79c4.57,1.19,8.15,2.54,10.74,4.03l-4.33,14.03
			c-2.29-0.9-5.17-1.84-8.65-2.84c-3.48-0.99-7.01-1.49-10.59-1.49c-5.77,0-8.65,2.24-8.65,6.72c0,1.79,0.84,3.23,2.54,4.33
			c1.69,1.1,3.78,2.11,6.27,3.06c2.49,0.95,5.22,1.97,8.21,3.06c2.98,1.09,5.72,2.51,8.21,4.25c2.48,1.74,4.57,4.01,6.27,6.79
			c1.69,2.79,2.54,6.37,2.54,10.74c0,7.56-2.41,13.5-7.24,17.83c-4.83,4.33-12.06,6.49-21.71,6.49c-5.27,0-10.22-0.67-14.84-2.02
			c-4.62-1.34-8.38-2.91-11.26-4.7l5.37-14.47c2.29,1.29,5.32,2.56,9.1,3.8c3.78,1.24,7.66,1.86,11.64,1.86
			c2.88,0,5.2-0.54,6.94-1.64C978.73,157.74,979.6,155.9,979.6,153.32z"/>
	</g>
	<g>
		<path class="st1" d="M543.56,235.53h-21.31v20.36h-5.26v-44.4h5.26v19.34h21.31v-19.34h5.26v44.4h-5.26V235.53z"/>
		<path class="st1" d="M559.61,211.49h24.16v4.69h-18.9v14.52h17.31v4.69h-17.31v15.8h19.22v4.69h-24.48V211.49z"/>
		<path class="st1" d="M614.68,243.58H598.4l-4.42,12.3h-5.26l16.81-45.09h2.41l16.87,45.09h-5.58L614.68,243.58z M600.1,239.02h13
			l-4.92-13.5l-1.58-6.72h-0.06l-1.58,6.85L600.1,239.02z"/>
		<path class="st1" d="M656.96,255.89H630.7v-44.4h5.26v39.7h20.99V255.89z"/>
		<path class="st1" d="M684.42,216.18h-13.83v39.7h-5.26v-39.7H651.5v-4.69h32.91V216.18z"/>
		<path class="st1" d="M717.53,235.53h-21.31v20.36h-5.26v-44.4h5.26v19.34h21.31v-19.34h5.26v44.4h-5.26V235.53z"/>
		<path class="st1" d="M761.98,254.05c-1.27,0.97-2.88,1.64-4.82,2.03c-1.95,0.38-4.02,0.57-6.22,0.57c-2.66,0-5.16-0.46-7.48-1.37
			c-2.33-0.91-4.36-2.29-6.09-4.15c-1.73-1.86-3.11-4.24-4.12-7.13c-1.02-2.9-1.52-6.33-1.52-10.31c0-4.15,0.56-7.66,1.68-10.56
			c1.12-2.9,2.6-5.26,4.44-7.1c1.84-1.84,3.9-3.18,6.18-4.03c2.28-0.85,4.61-1.27,6.98-1.27c2.54,0,4.61,0.14,6.22,0.41
			c1.61,0.28,2.98,0.65,4.12,1.11l-1.27,4.7c-2.03-1.02-4.93-1.53-8.69-1.53c-1.73,0-3.45,0.32-5.14,0.95
			c-1.69,0.63-3.2,1.67-4.54,3.1c-1.33,1.44-2.4,3.32-3.2,5.65c-0.8,2.33-1.2,5.18-1.2,8.56c0,3.04,0.38,5.71,1.14,7.99
			c0.76,2.28,1.81,4.19,3.14,5.71c1.33,1.52,2.9,2.66,4.69,3.43c1.8,0.76,3.75,1.14,5.87,1.14c1.9,0,3.56-0.19,4.98-0.57
			c1.42-0.38,2.61-0.87,3.58-1.46L761.98,254.05z"/>
		<path class="st1" d="M789.09,243.58h-16.28l-4.42,12.3h-5.26l16.81-45.09h2.41l16.87,45.09h-5.58L789.09,243.58z M774.51,239.02
			h13l-4.92-13.5l-1.58-6.72h-0.06l-1.58,6.85L774.51,239.02z"/>
		<path class="st1" d="M805.11,211.94c1.61-0.3,3.46-0.53,5.55-0.69c2.09-0.17,4.01-0.25,5.74-0.25c1.95,0,3.79,0.21,5.55,0.63
			c1.75,0.42,3.3,1.12,4.63,2.09c1.33,0.97,2.4,2.24,3.2,3.8c0.8,1.57,1.2,3.47,1.2,5.71c0,3.47-0.95,6.28-2.85,8.43
			c-1.9,2.16-4.31,3.59-7.23,4.31l3.05,2.35l11.04,17.57h-6.15l-12.24-19.16l-6.22-0.95v20.11h-5.26V211.94z M816.52,215.55
			c-0.55,0-1.12,0-1.71,0s-1.16,0.02-1.71,0.07s-1.07,0.08-1.55,0.12c-0.49,0.05-0.88,0.11-1.17,0.19v16.36h4.95
			c2.92,0,5.33-0.72,7.23-2.16c1.9-1.44,2.85-3.68,2.85-6.72c0-2.29-0.78-4.17-2.35-5.65C821.49,216.29,819.31,215.55,816.52,215.55
			z"/>
		<path class="st1" d="M842.84,211.49h24.16v4.69h-18.9v14.52h17.31v4.69h-17.31v15.8h19.22v4.69h-24.48V211.49z"/>
	</g>
	<g>
		<g>
			<path class="st1" d="M297.46,80.21c-0.02,0.07-0.05,0.15-0.08,0.22c-4.75,11.64-9.37,23.3-13.72,34.66
				c-4.32,11.28-8.38,22.67-12.06,33.84c-3.69,11.18-7.07,22.78-10.06,34.47c-2.97,11.62-5.43,24.02-7.34,36.87
				c-0.72,4.35-1.45,9.12-2.17,14.26c-0.72,5.13-1.32,10.47-1.79,15.89c-0.33,3.81-0.59,7.56-0.8,11.27
				c41.72-21.77,70.21-65.43,70.21-115.74c0-25.91-7.56-50.06-20.58-70.36C298.54,77.14,297.99,78.68,297.46,80.21z"/>
		</g>
		<g>
			<path class="st1" d="M225.96,253.48c0.12-15.76,1.91-32.28,5.33-49.1c1.9-10.01,3.98-20.1,6.17-29.93
				c2.19-9.84,4.64-19.71,7.29-29.34c1.44-5.54,3.11-11.22,4.94-16.83c1.74-5.34,3.22-10.43,4.41-15.14
				c0.32-1.78,1.08-4.09,2.4-7.25c0.9-2.16,1.81-4.48,2.71-6.94c-0.66,1.06-0.82,1.45-0.83,1.5c-0.16,0.49-0.41,0.92-0.74,1.32
				c-10.81,12.97-21.51,26.05-31.8,38.85c-10.18,12.67-20.53,25.63-30.75,38.52l-5.8,7.25c-2.14,2.67-4.44,4.97-6.84,6.83
				c-3.12,2.55-6.8,4.24-10.85,4.96c-1.53,0.27-3.07,0.41-4.57,0.41c-2.42,0-4.82-0.36-7.13-1.07c-3.67-1.12-7.09-3.04-10.16-5.7
				c-3.1-2.67-5.41-6.13-6.86-10.26c-0.9-1.6-1.43-3.26-1.6-4.93c-0.13-1.28-0.2-2.64-0.2-4.02c0-3.79,0.25-7.96,0.75-12.4
				c0.47-4.26,0.95-8.41,1.42-12.46c0-2.24,0.07-4.71,0.18-7.36c0.12-2.82,0.31-5.74,0.55-8.67c0.06-0.75,0.12-1.5,0.19-2.23
				c-3.1,6.14-6.42,11.9-9.87,17.14c-3.45,5.24-6.88,10.78-10.2,16.46c-0.04,0.06-0.08,0.13-0.12,0.19
				c-7.02,10.66-13.86,20.14-20.31,28.18c-6.23,7.76-12.38,16.95-18.27,27.33c-0.03,0.05-0.06,0.1-0.09,0.15
				c-0.61,0.98-1.29,2.04-2.04,3.2c23.69,32.87,62.3,54.27,105.91,54.27c12.88,0,25.31-1.87,37.07-5.35
				C226.02,265.2,225.92,259.33,225.96,253.48z"/>
		</g>
		<g>
			<path class="st1" d="M83.75,171.09c7.72-13.15,15.78-26.4,23.95-39.38c10.04-16.98,20.29-33.82,30.4-49.94
				c10.02-15.98,20.19-32.68,30.22-49.64c0.91-2.07,1.87-3.59,2.93-4.65c0.32-0.32,0.63-0.84,0.9-1.52
				c0.56-1.39,1.84-2.37,3.33-2.55c0.7-0.08,1.39-0.12,2.05-0.12c4.78,0,8.53,2.12,10.85,6.13c1.76,3.05,3.46,5.74,5.05,8.02
				c0.54,0.77,0.8,1.71,0.73,2.65c-0.26,3.65-0.8,6.91-1.59,9.7c-0.77,2.71-1.82,5.52-3.11,8.35c-0.14,0.31-0.32,0.6-0.53,0.87
				c-2.57,3.22-4.59,7.04-6,11.37c-1.53,4.7-2.91,9.48-4.08,14.2c-1.7,7.05-3.66,14.69-5.81,22.69c-2.16,8.04-4.09,16.24-5.73,24.36
				c-1.65,8.13-2.79,16.24-3.37,24.1c-0.44,5.82-0.31,11.39,0.37,16.62c0.5-0.37,1.08-0.83,1.74-1.4c3.24-2.78,6.65-6.13,10.13-9.96
				c3.51-3.86,6.83-7.89,9.88-11.99c3.11-4.19,5.52-7.51,7.17-9.86c0.14-0.2,0.29-0.38,0.46-0.55l2.72-2.72
				c0.85-0.85,1.55-1.74,2.09-2.64c0.22-0.37,0.5-0.7,0.82-0.98c5.57-4.87,10.8-10.46,15.56-16.61c4.89-6.32,9.71-12.95,14.34-19.71
				c4.71-6.88,9.36-13.64,13.95-20.28c4.63-6.7,9.59-12.85,14.75-18.28c3.77-4.79,7.33-9.79,10.66-14.96
				c-21.99-16.88-49.51-26.92-79.37-26.92c-72.06,0-130.47,58.41-130.47,130.47c0,17.77,3.56,34.7,9.99,50.14
				C73.84,187.74,78.88,179.38,83.75,171.09z"/>
		</g>
	</g>
	<g>
		<path class="st0" d="M271.01,327.85c-4.63,0-10.04-1.58-16.07-4.69l-0.21-0.1c-3.97-1.77-7.47-3.93-10.41-6.44
			c-2.6-2.22-4.36-5.35-5.36-9.59l-0.14-0.59l-0.31-0.53c-1.31-2.24-1.97-4.22-1.97-5.89v-0.26l-0.03-0.25
			c-1.9-15.19-2.8-30.65-2.68-45.96c0.12-15.24,1.85-31.23,5.17-47.53c1.91-10.03,3.97-20.03,6.14-29.79
			c2.16-9.71,4.58-19.45,7.19-28.94c1.43-5.49,3.05-11.01,4.83-16.47c1.82-5.57,3.37-10.9,4.6-15.84l0.04-0.17l0.03-0.17
			c0.1-0.63,0.49-2.2,1.91-5.6c1.23-2.96,2.47-6.19,3.7-9.61c1.23-3.45,2.35-6.94,3.34-10.39c1.07-3.75,1.61-7.29,1.61-10.54V66.21
			l-7.38,9.85c-0.74,0.99-1.85,2.53-3.32,4.62c-1.44,2.04-2.94,4.14-4.5,6.3c-1.57,2.17-3,4.22-4.25,6.1
			c-1.14,1.7-1.87,2.94-2.32,3.94c-10.7,12.85-21.29,25.79-31.48,38.47c-10.2,12.69-20.55,25.66-30.78,38.57l-5.78,7.22
			c-1.74,2.17-3.57,4.01-5.47,5.48c-2.21,1.81-4.56,2.89-7.25,3.36c-1.06,0.19-2.12,0.29-3.13,0.29c-1.6,0-3.19-0.24-4.71-0.71
			c-2.58-0.79-5-2.16-7.21-4.07c-2.11-1.82-3.61-4.13-4.58-7.06l-0.14-0.43l-0.23-0.39c-0.41-0.68-0.64-1.32-0.7-1.91
			c-0.11-1.04-0.16-2.12-0.16-3.22c0-3.48,0.23-7.35,0.7-11.49c0.48-4.34,0.96-8.55,1.44-12.64l0.03-0.24v-0.24
			c0-2.17,0.06-4.6,0.18-7.24c0.12-2.74,0.3-5.54,0.53-8.34c0.24-2.89,0.48-5.65,0.72-8.3c0.22-2.43,0.55-4.53,0.98-6.25
			c0.43-1.72,0.18-3.16-0.71-4.31l-1.23-1.57l-2.1-0.05c-1.9,0-3.11,1.21-3.56,1.67c-0.87,0.87-1.88,2.08-3.09,3.7l-3.26,4.34
			c-1.35,1.8-1.85,2.33-1.97,2.46l-0.47,0.47l-0.3,0.59c-3.05,6.1-6.32,11.8-9.71,16.95c-3.52,5.34-7.01,10.97-10.38,16.74
			c-6.86,10.41-13.52,19.65-19.8,27.47c-6.49,8.08-12.87,17.61-18.96,28.33c-1.16,1.85-2.54,3.98-4.24,6.53
			c-1.68,2.52-3.43,5.04-5.17,7.49c-1.7,2.37-3.52,4.6-5.43,6.63c-1.69,1.79-3.28,3.07-4.75,3.81c-2.09,0.93-3.84,1.69-5.24,2.27
			c-0.93,0.39-1.44,0.44-1.66,0.44c-0.29-0.03-0.75-0.2-1.45-0.76c-0.53-0.42-1.15-0.96-1.86-1.61c0.73-0.39,1.34-0.83,1.85-1.35
			l0.21-0.21l0.18-0.24c2.69-3.66,5.35-7.23,7.93-10.63c2.72-3.58,5.48-7.78,8.21-12.48c8.2-13.03,16.24-26.26,23.91-39.31
			c7.69-13.1,15.71-26.27,23.82-39.16c10.13-17.12,20.34-33.89,30.41-49.95c10.1-16.11,20.35-32.95,30.46-50.04l0.13-0.23l0.1-0.24
			c0.76-1.76,1.25-2.28,1.3-2.33c0.51-0.51,0.98-1.09,1.41-1.73c1.29,0.18,2.14,0.79,2.82,1.97c1.57,2.72,3.11,5.2,4.59,7.39
			c-0.24,2.51-0.64,4.73-1.18,6.62c-0.62,2.18-1.46,4.45-2.49,6.77c-3.04,3.9-5.41,8.45-7.06,13.54c-1.59,4.88-3.02,9.84-4.24,14.75
			c-1.7,7.04-3.64,14.62-5.77,22.55c-2.2,8.2-4.17,16.57-5.85,24.86c-1.72,8.47-2.9,16.92-3.51,25.12
			c-0.63,8.42-0.18,16.41,1.34,23.75l0.58,2.82l2.85,0.41c0.32,0.05,0.65,0.07,0.99,0.07c2.79,0,5.83-1.54,9.86-4.99
			c3.5-3,7.15-6.59,10.86-10.67c3.69-4.06,7.19-8.3,10.39-12.62c3.08-4.14,5.4-7.34,7.1-9.75l2.46-2.46
			c1.15-1.15,2.15-2.38,2.98-3.66c5.79-5.12,11.23-10.96,16.19-17.36c4.99-6.45,9.9-13.21,14.62-20.1
			c4.7-6.87,9.34-13.62,13.92-20.25c4.42-6.41,9.16-12.27,14.07-17.42l0.13-0.14l0.12-0.15c7.26-9.2,13.79-19.15,19.4-29.59
			c1.85-2.28,3.68-3.46,5.57-3.61c3.13-0.24,6.45-0.72,9.87-1.43c3.31,0.06,4.61,0.79,5.02,1.12c0.85,0.67,1.69,1.81,2.46,3.32
			c-2.48,7.12-5.19,14.38-8.08,21.61c-3.13,7.83-6.07,15.71-8.72,23.42c-4.76,11.66-9.38,23.34-13.74,34.72
			c-4.36,11.4-8.47,22.91-12.19,34.2c-3.75,11.36-7.18,23.14-10.21,35.02c-3.04,11.89-5.56,24.57-7.5,37.69
			c-0.71,4.27-1.45,9.12-2.18,14.33c-0.74,5.27-1.35,10.76-1.83,16.32c-0.49,5.58-0.86,11.12-1.1,16.46
			c-0.25,5.42-0.13,10.55,0.36,15.24c0.02,5.8,0.67,11.24,1.94,16.19c1.2,4.69,2.56,9.55,4.03,14.45l0.18,0.58l0.34,0.51
			c2.23,3.35,5,6.11,8.23,8.22c2.85,1.86,6.01,2.81,9.38,2.81c0.87,0,1.77-0.07,2.67-0.19l0.37-0.05l0.35-0.12
			c6.17-2.06,12.46-5.42,18.68-10c6-4.41,11.76-8.53,17.1-12.24l0.12-0.09l0.12-0.09c5.1-4.13,10.03-8.39,14.67-12.65
			c4.46-4.11,9.19-8.42,14.08-12.82l1.38-1.29c-0.15,0.19-0.3,0.37-0.45,0.56c-3.36,4.2-6.85,8.35-10.37,12.34
			c-3.61,4.09-6.32,7.27-8.28,9.71c-5.28,5.04-10.3,10-14.93,14.75c-4.43,4.55-9.04,8.29-13.68,11.12
			c-4.37,2.66-9.18,4.23-14.31,4.66C272.1,327.83,271.56,327.85,271.01,327.85z"/>
	</g>
	<g>
		<defs>
			<circle id="SVGID_1_" cx="189.2" cy="145.95" r="130.47"/>
		</defs>
		<clipPath id="SVGID_2_">
			<use xlink:href="#SVGID_1_"  style="overflow:visible;"/>
		</clipPath>
		<g class="st2">
			<path class="st3" d="M244.75,145.11c0.49-1.89,1.02-3.79,1.56-5.7c-1.73-2.42-3.45-5.61-4.25-6.93c-1.4-2.31-2.61-4.75-3.76-7.24
				c-4.2,5.15-8.37,10.29-12.47,15.39c-7.62,9.48-15.33,19.12-23.01,28.78c0.33,0.64,0.65,1.27,0.94,1.89
				c1.99,4.28,1.44,5.58,0.16,10.09c-1.34,4.73-2.05,6.5-0.38,10.95c2.23,5.95,4.46,11.91,6.69,17.86c2.15,5.73,2.71,5.93,9.25,4.46
				c4.76-1.07,7.47-3.08,10.34-7.16c1.3-1.84,1.08-4.11,1.99-5.83c1.76-9.11,3.65-18.26,5.64-27.21
				C239.65,164.6,242.1,154.73,244.75,145.11z"/>
			<path class="st3" d="M213.43,110.04c-3.17-1.53-6.64-2.85-9.63-4.66c-3.76-2.26-3.38-1.58-2.84-6.2
				c-6.14,0.7-12.53,0.97-18.59,2.11c-2.56,0.48-3.12,0.36-5.16,1.58c-3.98,2.38-2.44,3.52-4.03,6.62c-0.41,0.8-0.85,1.55-1.31,2.28
				c-1.69,6.59-3.22,13.25-4.56,19.86c-0.9,4.41-1.63,8.81-2.21,13.17c0.83,0.94,1.74,1.84,2.7,2.72c3.82,3.52,7.59,3.62,13.35,3.39
				c1.26-0.05,2.61-0.33,3.96-0.66c0.32-0.42,0.64-0.83,0.95-1.25c3.11-4.19,5.52-7.51,7.17-9.86c0.14-0.2,0.29-0.38,0.46-0.55
				l2.72-2.72c0.85-0.85,1.55-1.74,2.09-2.64c0.22-0.37,0.5-0.7,0.82-0.98c5.57-4.87,10.8-10.46,15.56-16.61
				c2.15-2.78,4.29-5.63,6.4-8.52C217.56,106.25,214.07,106.06,213.43,110.04z"/>
			<path class="st3" d="M259.22,98.96c-0.66,1.06-0.82,1.45-0.83,1.5c-0.16,0.49-0.41,0.92-0.74,1.32
				c-5.68,6.82-11.33,13.66-16.91,20.48c2.36,4.52,4.45,9.43,5.25,10.92c0.58,1.09,0.94,1.99,1.34,2.7c0.75-2.53,1.54-5.07,2.36-7.6
				c1.74-5.34,3.22-10.43,4.41-15.14c0.02-0.11,0.05-0.23,0.07-0.35c-0.41-0.93-0.76-1.76-1.04-2.3c0.46-0.26,1.03-0.25,1.67-0.06
				c0.41-1.29,0.97-2.78,1.7-4.54C257.4,103.73,258.31,101.41,259.22,98.96z"/>
			<path class="st3" d="M176.21,99.63c3.76,2.17,6.37-0.13,8.82-2.69c1.82-1.91,3.36-4.75,5.44-6.61c0.24-0.22-0.28-1.96,0-2.09
				c0.48-0.21,1.6,0.3,1.93,0.13c0.5-0.27,2.12,0.91,2.71,0.85c0.55-0.06,0.97-1.52,1.52-1.55c3.55-0.18,6.86,1.74,9.36,5.26
				c2.35,3.3,1.82,4.53-2.97,4.23c4.26,3.78,5.1,0.27,8.06-3.22c-3.12-1.68-10.29-5.07-7.22-9.43c2.56,2.13,6.32,4.27,8.29,6.89
				c0.54,0.72,0.6,2.63,1.21,3.61c1.03,1.68,2.9,3.14,4.27,4.62c0.78-1.95,0.67-4.14-0.3-5.99c1.52-0.27,3.04-0.55,4.56-0.82
				c0.67,3.82,0.1,5.57,4.13,6.91c0.15,0.05,0.32,0.08,0.48,0.12c0.91-1.3,1.83-2.61,2.72-3.92c4.71-6.88,9.36-13.64,13.95-20.28
				c4.63-6.7,9.59-12.85,14.75-18.28c3.1-3.93,6.05-8.02,8.86-12.22c-5.14-0.34-8.71-2.87-5.73,5.15
				c-7.26-1.34-12.67-1.28-19.64,1.17c-2.08,0.73-5.2,1.29-7.02,2.47c-0.79,0.51-1.59,2.68-2.01,2.81
				c-3.38,1.07-5.98-1.96-7.84-4.42c3.17,0.37,6.77,1.53,9.66-0.22c-6.34-4.85-20.05-6.52-26.98-1.98
				c-2.02,1.32-2.92,4.23-4.81,5.73c-1.81,1.43-6.56,2.06-7.6,3.91c-0.51,0.9-0.56,3.82,1.19,4.92c1.52,0.96,3.04-0.16,5.27-1.05
				c0.42,2.27-0.16,6.94,3.19,6.21c1.68-0.36,4.73-5.87,5.86-7.26c-6.04-0.88,1.23-10.87,6.16-7.34c-2.7,2.16-5.3,2.89-2.26,5.98
				c2.14,2.18,4.07,0.96,7.43,0.38c-0.76,2.82-1.82,0.72-3.38,1.87c-0.77,0-1.55,0-2.32,0c0,0.61,0,1.22,0,1.83
				c-0.5,0.46-1.66,1.13-2.14,1.79c-0.52,0.73,0.12,2.48-0.61,2.99c-3.47,2.45-15.43,3.26-12.77-3.54
				c-4.86,0.22-1.24,2.49-2.89,4.63c-1.13,1.46-2.29,0.67-4.01,1.95c-2.23,1.65-1.5,2.9-4.18,4.46c-2.22,1.29-5.11,1.95-7.55,2.88
				c1.61,1.82,5.75,5.51,2.68,7.79c-1.89,1.41-4.4,0.42-6.57,0.14c-0.83,3.38-1.72,6.88-2.66,10.47
				C175.54,99.17,175.86,99.43,176.21,99.63z"/>
			<path class="st3" d="M297.46,80.21c-0.02,0.07-0.05,0.15-0.08,0.22c-4.75,11.64-9.37,23.3-13.72,34.66
				c-0.62,1.61-1.22,3.23-1.82,4.85c2.25,2.06,5.58,8.05,7.95,2.97c-0.37,4.15,2.02,8.36,3.42,12.17c1.26,3.42,2.01,8.56,5.32,10.89
				c4.43-4.79,0.68-6.97,2.74-12.35c0.9-2.35,6.93-8.1,9.17-9.39c4.64-2.69,7.09-1.43,9.44,2.72c1.03,1.82,3.35,10.13,5.73,4.06
				c3.58,9.91,1.95,20.61,12.4,26.2c-0.81-1.67-0.5-4.21-1.36-5.68c-0.76-1.29-2.11-1.89-3.2-3.08c-3.54-3.87-3.09-5.79-2.74-10.78
				c3.99,0.98,5.54,5,7.6,8.01c1.63-1.52,5.38-3.93,5.72-5.89c0.4-2.29-1.98-6.13-3.17-8.02c-1.69-2.7-4.59-2.95-1.6-6.2
				c1.98-2.15,4.19-1.14,7.24-1.81c6.07-1.34,10.11-6.08,9.83-11.97c-0.15-3.23-0.29-3.3-2.73-6.18c-1.59-1.87-5.18-6.04,0.08-7.34
				c-2.9,0.71-5.63-0.37-7.45-2.47c1.24-1.07,2.48-2.15,3.73-3.22c0.08,5.37,3.15,1.3,5.74,2.33c1.83,0.73,4.16,6.86,5.21,8.6
				c8.31-2.2-0.99-5.52-1.84-8.49c-0.3-1.04,1.23-4.81,2.24-5.61c0.91-0.72,2.99,0.29,4.44-1.03c2.95-2.69,0.76-11.64-1.72-14.12
				c-2.65-2.65-7.92-2.59-11.95-3.32c2.97-5.79,2.53-7.07,9.24-7.31c2.03-0.07,5.49,0.47,7.34-0.26c0.75-0.29,0.45-2.9,3.36-3.33
				c7.97-1.17,2.58,4.37,3.49,7.29c0.92,2.97,7.6,6.91,10.04,9.13c-0.18-2.01,0.18-5.06-0.61-6.96c-0.8-1.92-3.71-2.87-3.74-5.02
				c-0.05-2.99,8.43-4.47,11.58-6.21c-1.98-0.85-3.95-1.7-5.93-2.55c3.3-1.92,7.9-0.17,11.41,0.37
				c1.43-6.76-48.37-10.11-52.88-10.59c-7.69-0.83-14.16,1.86-21.7-0.23c-4.02-1.12-8.24-1.44-12.5-1.5
				c-1.62,4.4-3.31,8.83-5.08,13.24C302.98,64.8,300.08,72.59,297.46,80.21z"/>
			<path class="st3" d="M265.13,114.87c0.01,0,0.02,0,0.03,0.01C265.14,114.87,265.13,114.87,265.13,114.87z"/>
			<path class="st3" d="M182.69,71.16c0.33,0.19,0.55,0.64,0.43,1.92c-0.08,0.91-1.09,2.17-2.03,3.3c-0.15,0.5-0.3,0.99-0.44,1.48
				c2.36-0.53,4.72-1.06,7.08-1.59c3.29-2.14-0.22-3.13-1.37-5.24c-0.82-1.52-1.15-3.58-1.47-5.49c-0.74,1.54-1.41,3.13-1.96,4.83
				C182.85,70.64,182.78,70.9,182.69,71.16z"/>
			<path class="st3" d="M249.56,47.23c-9.45-2.86,5.37-7.02,7.22-7.49c-3.84,0-9.22-0.78-12.28,2.25
				C241.11,45.34,245.11,49.11,249.56,47.23z"/>
			<path class="st3" d="M209.48,37.05c-3.69-1.41-5.62-1.43-9.58-1.05c2.05,1.25,4.11,2.5,6.16,3.74
				C207.2,38.85,208.34,37.95,209.48,37.05z"/>
			<path class="st3" d="M217.24,35.89c-3.11-0.43-6.15-0.73-9.28-0.94C210.47,37.74,213.89,36.36,217.24,35.89z"/>
			<path class="st3" d="M377.24,93.5c-3.94-3.92-0.8,2.12-2.37,4.9c-1.69,3.01-6.42,3.14-8.74,6.11c0.51,1.52,1.97,3.07,2.97,4.34
				c1.42-5.95,5.09-2.92,8.98-6.52C380.19,100.37,380.04,96.28,377.24,93.5z"/>
			<path class="st3" d="M379.91,88.18c-2.48-1.02-4.97-2.05-7.45-3.07c2.08,2.91-1.13,4.44,1.67,6.51c0.41-0.15,0.81-0.3,1.22-0.45
				c-0.2-0.45-0.41-0.9-0.61-1.35C376.98,90.65,379.23,90.63,379.91,88.18z"/>
			<path class="st3" d="M371.92,84.06c0.63,0,1.27,0,1.9,0c-2.82-4.6-5.88-8.43-9.43-12.58C363.17,74.3,370.09,81.25,371.92,84.06z"
				/>
			<path class="st3" d="M358.66,123.27c0.19-1.66,0.37-3.33,0.56-4.99C357.04,119.24,357.14,121.43,358.66,123.27z"/>
			<path class="st3" d="M342.44,129.11c2.22-0.26,1.92,0.02,2.64-2.15c-0.78,0-1.55,0-2.33,0
				C342.64,127.67,342.54,128.39,342.44,129.11z"/>
			<path class="st3" d="M324.19,149.77c0.82,2.97,5.23,7.06,6.97,10.24c1.72,3.13,4.72,8.46,8.89,8.78
				C340.06,160.3,332.21,153.14,324.19,149.77z"/>
			<path class="st3" d="M357.75,155.3c0.65-3.57,2.02-4.8-1.5-7.52c-2.79,3.04-5.58,6.09-8.37,9.13c-0.79-0.17-1.57-0.35-2.36-0.52
				c-2.28,6.31,5.12,12.3,9.97,7.63C357.74,161.85,357.28,157.86,357.75,155.3z"/>
			<path class="st3" d="M360.13,139.99c-1.37,2.25-2.74,4.49-4.11,6.74C357.73,144.66,360.08,142.77,360.13,139.99z"/>
			<path class="st3" d="M369.99,145.31c-0.24-5.44-3.77-5.42-6.67-8.82c-2.01-2.36-0.32-7.01-3.65-7.39
				c-0.35,4.63-0.56,5.87,2.21,9.68c1.98,2.93,0.35,6.82,2.78,9.15C368.33,151.47,370.14,148.59,369.99,145.31z"/>
			<path class="st3" d="M368.42,156.98c-3.2,1.69-6.29-0.94-8.29,2.84c2.69-1.98,4.89-1.12,7.91-0.55
				C368.16,158.59,368.48,157.67,368.42,156.98z"/>
			<path class="st3" d="M365.38,160.27c-3.11,2.25-4.76-0.75-6.02,3.38c-0.5,1.66,0.31,5.19,2.14,5.13
				c-0.06-1.97-0.79-4.13,0.8-5.37c-0.4,2.37,0.43,3.88,3.08,2.92c-0.74-1.37-1.47-2.74-2.21-4.12c1.01,0.11,2.11-0.42,3.12-0.3
				C365.99,161.37,365.69,160.82,365.38,160.27z"/>
			<path class="st3" d="M352.76,172.18c-3.02-0.79-10.22-4.26-12.7-2.02C343.17,171.54,350.19,175.02,352.76,172.18z"/>
			<path class="st3" d="M372.38,161.1c0.91-1.83,1.44-3.94,0.76-5.91C371.37,156.81,371.43,159.06,372.38,161.1z"/>
			<path class="st3" d="M376.94,165.74c-0.41-1.97-2.26-2.05-4.37-1.57C372.94,165.96,374.88,165.49,376.94,165.74z"/>
			<path class="st3" d="M371.31,164.95c-0.28-0.26-0.56-0.52-0.84-0.79c-0.25,0.26-0.51,0.52-0.76,0.79
				C370.44,165.15,370.57,165.16,371.31,164.95z"/>
			<path class="st3" d="M388.11,162.76c-2.21-0.05-2.87,0.84-5.01,2.45c-0.81-2.74-2.06-6.6-5.86-4.12c0,4.07,3.96,5.35,6.77,6.65
				c2.73,1.26,6.19,2.61,1.67,5.55c2.17-0.31,4.03,1.12,5.74,0.97c0.88-0.07,1.92,0.21,2.78,0c0.7-0.17,1.09-2.55,1.8-2.56
				c2.08-0.02,1.81,0.78,3.68,2.11c2.31,1.66,2.67,2.13,5.86,2.99c-2.53-3.05-5.32-7.98-8.4-10.33
				C395.78,165.45,389.97,162.8,388.11,162.76z"/>
			<path class="st3" d="M408.81,165.21c-2.08,2.91-3.9,2.62-7.3,2.62C403.91,169.62,411.06,169.07,408.81,165.21z"/>
			<path class="st3" d="M395.73,187.61c-1.26-3.11-1.68-6.79-2.49-10.04c-1.79,3.63-3.58,7.25-5.37,10.88
				c-5.08-3.77-6.81-3.44-3.85-8.88c-1.93-0.67-3.85-1.33-5.78-2c-1.02,1.28-3.47,5.74-4.95,6.21c-2.3,0.73-3.18-1.49-4.98-1.15
				c-3.92,0.74-8.11,7.67-11.51,9.65c-5.9,3.45-9.03,2.51-9.88,10.14c-0.31,2.8,1.14,6.05,0.49,8.79c-0.6,2.53-4.09,3.68,0.41,5.08
				c4.29,1.33,12.93-3.55,17.45-4.4c2.44-0.46,3.54-1.35,5.95,0.06c1.94,1.13,2.02,3.25,3.33,5.16c8.08,11.83,21.83,0.09,26.59-8.57
				c3.18-5.79,1.61-10.51-1.96-15.69C397.64,190.64,396.74,190.12,395.73,187.61z"/>
			<path class="st3" d="M379.65,230.37c3.82,1.05,5.03-2.34,6.9-4.79c-2.13-0.13-4.26-0.27-6.39-0.4
				C379.99,226.91,379.82,228.64,379.65,230.37z"/>
			<path class="st3" d="M403.99,233.56c4.9,2.59,4.96,1.67,9.54-1.34c2.49-1.64,8.92-3.72,5.47-7.05
				C413.99,227.97,408.99,230.77,403.99,233.56z"/>
			<path class="st3" d="M420.31,225.18c0.32,0.69,1.14,1.4,1.62,2c1.37-1.1,7.23-4.46,7.44-5.98c0.2-1.42-3.26-4.52-4.4-5.9
				C423.42,218.59,421.87,221.89,420.31,225.18z"/>
			<path class="st3" d="M442.95,187.22c-0.77,0.25-1.58,0.88-2.28,1.27C442.8,190.02,445.24,189.86,442.95,187.22z"/>
			<path class="st3" d="M425.76,195.98c-0.64-1.89-3.97-3.51-5.86-3.37C419.92,192.63,426.28,197.51,425.76,195.98z"/>
			<path class="st3" d="M354.61,172.78c0.86,3.16,11.85,0.72,15.11,0C364.68,172.78,359.64,172.78,354.61,172.78z"/>
			<path class="st3" d="M365.46,176.37c-1.77-0.4-3.55-0.8-5.32-1.2C360.82,176.71,364.48,178.35,365.46,176.37z"/>
			<path class="st3" d="M141.29,176.64c-0.13-1.28-0.2-2.64-0.2-4.02c0-2.41,0.11-4.98,0.32-7.67c-2.58-0.83-5.1-1.53-6.57-2.09
				c-1.62-0.62-5.09-1.25-6.26-2.5c-0.64-0.68-1.01-1.57-1.29-2.54c-1.06,1.75-2.11,3.51-3.15,5.28c-0.04,0.06-0.08,0.13-0.12,0.19
				c-7.02,10.66-13.86,20.14-20.31,28.18c-0.77,0.96-1.55,1.95-2.32,2.96c0.08,1.37,0.05,2.9,0.16,4.7
				c0.65,10.3,0.23,20.63,3.62,30.47c1.71,4.95,2.66,9.08,6.07,13c4.89,5.63,6.68,5.79,14.05,5.79c-6-4.75-8.49-5.41-8.64-12.69
				c-0.13-6.64-0.69-8.55,3.41-13.62c7.71-9.54,18.39-19.1,22.5-30.56c0.71-1.98,1.42-3.97,2.14-5.95c-0.7-1.25-1.3-2.58-1.8-4
				C141.99,179.96,141.45,178.31,141.29,176.64z"/>
			<path class="st3" d="M99.13,142.26c-3.13,0.45-6.58,2.09-9.29,2.45c-1.12,0.15-5.93-0.43-6.91-0.94
				c-3.87-2.02-2.05-6.06-1.52-9.22c-2.53-0.3-5.07-0.6-7.6-0.9c1.35-3.19,2.7-6.39,4.06-9.58c-3.21,0.92-3.97,2.21-6.29,3.39
				c-1.5,0.76-4.68,2.59-6.53,1.63c-4.14-2.14-3.4-10.91-0.96-14.15c2.05-2.71,9.66-4.66,13.58-5.06c7.79-0.78,7.48,2.72,9.63,8.78
				c2.93-3.72-0.39-7.59,1.42-11.08c1.46-2.82,7.38-4.66,9.76-7.06c6.69-6.76,9.29-12.18,18.74-15.5c0,0.67,0,1.33,0,2
				c2.7-1.06,5.41-2.13,8.11-3.19c-1.93,0-3.85,0-5.78,0c0.19-1.58,0.76-3.1,1.72-4.39c-2.03,0.3-4.06,0.6-6.08,0.9
				c5.12-2.69,12.98-1.73,17.32-4.49c4.63-2.94-1.13-10.21-2.82-13.88c-1.86,1.1-3.72,2.2-5.58,3.29c-2.09-3,1.79-3.79-3.09-5.62
				c-4.06-1.52-4.72-0.02-6.92,2.51c-2.34,2.69-8.26,14.4-11.89,14.39c1.08-4.55,2.42-5.08-1.16-7.09
				c-2.35-1.31-10.2-0.74-9.06-5.49c0.77-3.24,14.47-8.61,17.93-10.58c-0.62,1.14-0.76,2.52-1.32,3.69c2.2-0.03,4.39-0.07,6.59-0.1
				c-1.39-1.2-2.77-2.4-4.16-3.59c5.15-0.64,6.08-0.27,8.62-4.59c-0.21-0.04-0.4-0.04-0.59-0.06c-0.67,0.37-1.36,0.82-1.84,0.66
				c-0.25-0.08-0.5-0.23-0.76-0.41c-1.81,0.56-3.39,1.78-5.12,2.81c0.35-1.82-0.47-2.44-1.72-2.6c0.06,1.19-0.25,1.94-2.84,1.21
				c-0.53-0.36-0.9-0.73-1.16-1.09c-0.13,0-0.27,0.01-0.4,0c-2.22-0.03-4.44-0.07-6.66-0.1c0.03,0.38,0.09,0.77,0.21,1.19
				c-5.78,0-11.56,0-17.34,0c0-0.44,0.17-0.95,0.43-1.5c-3.29-0.12-6.6-0.25-9.84-0.08c-3.6,0.19-7.24,1.55-10.82,1.53
				c-9.03-0.05-15.19-3.9-24.23-1.79c-9.52,2.22-15.09,6.6-23.07,12.13c0.98,1.13,1.96,2.26,2.94,3.39c-2.3,1.6-4.6,3.19-6.9,4.79
				c7.11-2.38,16.98-7.85,24.38-7.47c4.31,0.22,8.91,1.54,9.98,4.7c1.03,3.04,0.35,8.8-0.56,11.86c-2.08,7-12.43,17.53-7.53,25.45
				c0.63,1.02,2.72,1.14,3.41,2.24c1.16,1.85,0.15,5.89,0.66,8.03c0.64,2.69,2.68,8.47,6.28,8.3c-2.32-5.22-3.87-8.89-4.36-14.47
				c4.09,1.15,8.1,10.9,8.85,14.31c0.33,1.47-0.36,3.55,0.23,4.73c0.79,1.58,6.48,4.73,8.01,5.37c2.13,0.89,4.93,0.06,6.94,0.94
				c1.51,0.66,3.97,3.46,5.5,4.52c1.12,0.78,2.52,0.61,3.53,1.49c1.12,0.98,1.31,2.87,2.33,3.95c1.75,1.86,4.7,3.01,7,4.31
				c1.4-5.73,4.46,1.9,5.12,3.49c-2.64,4.37-5.12,7.9-6.02,12.83c-0.6,3.3-0.46,5.35,0.27,7.33c5.64-9.6,11.46-19.25,17.37-28.8
				C100.67,142.04,99.97,142.14,99.13,142.26z"/>
			<path class="st3" d="M95.61,126.46c-5.97-3.12-8.11-5.72-14.4-3.29C86.78,121.02,90.06,127.51,95.61,126.46z"/>
			<path class="st3" d="M104.23,129.65c-0.8-2.91-4.58-2.2-7.3-2.5c0.44,0.58,0.88,1.16,1.32,1.75c-1.03,0.04-2.12,0.5-3.14,0.45
				C98.15,131.2,100.93,130.24,104.23,129.65z"/>
			<path class="st3" d="M92.47,129.55c-0.95-0.21-1.97-0.55-2.94-0.65c0,0.58,0,1.16,0,1.75C90.36,130.45,91.75,130.01,92.47,129.55
				z"/>
			<path class="st3" d="M108.79,129.78c-1.04-0.29-2.09-0.64-3.14-0.87C106.37,129.61,106.77,130.28,108.79,129.78z"/>
			<path class="st3" d="M127.02,81.29c2.94,0.72,5.88,1.45,8.82,2.17c-0.12-1.27,0.16-3.78-0.46-4.94c-0.76-1.42-3.56,1.33-3.27-2.1
				C130.42,78.05,128.72,79.67,127.02,81.29z"/>
			<path class="st3" d="M119.05,48.74c0.49-0.27,0.97-0.51,1.34-0.44c2.53,0.46,5.82,0.74,6.63,3.3c-2.9,1.3-5.8,2.6-8.7,3.89
				c2.53,0.89,8.17,4.18,10.75,3.79c2.59-0.39,6.7-5,8.82-6.59c-2.78-2.55-6.58-7.74-10.1-8.98c-4.59-1.62-10.85-0.28-14.14,2.69
				c0.76,0.64,1.79,1.9,2.79,2.58C117.25,48.74,118.11,48.64,119.05,48.74z"/>
			<path class="st3" d="M119.05,48.74c-0.94-0.1-1.8,0-2.6,0.25c0.26,0.18,0.52,0.33,0.76,0.41
				C117.69,49.56,118.38,49.11,119.05,48.74z"/>
			<path class="st3" d="M125.22,51.25c-0.37-0.28-0.74-0.57-1.12-0.85C120.21,51.52,122.57,52.72,125.22,51.25z"/>
			<path class="st3" d="M109.61,49.19c-0.05-0.98-0.35-2.26,0.19-3.24c0.91-1.66,4.9-3.09,6.7-4.14c-3.2,0-13.59,3.73-10.9,7.49
				C106.9,49.28,108.44,49.04,109.61,49.19z"/>
			<path class="st3" d="M106.77,50.4c2.6,0.73,2.9-0.02,2.84-1.21c-1.17-0.15-2.7,0.08-4.01,0.12
				C105.86,49.67,106.24,50.04,106.77,50.4z"/>
			<path class="st3" d="M98.54,49.21c-0.16-1.94,0.76-3.56,1.53-5.5c-5.06,0.86-6.5-0.08-11.44-1.01c-4.24-0.8-6.56,0.36-10.87,1.81
				c0.93,2.84,4.43,0.63,6.79,0c-0.59,1.09-2,2.87-2.71,4.38c1.59,0.06,3.17,0.12,4.74,0.14C90.57,49.09,94.56,49.15,98.54,49.21z"
				/>
			<path class="st3" d="M98.75,50.4c-0.12-0.41-0.18-0.8-0.21-1.19c-3.99-0.06-7.97-0.12-11.96-0.18c-1.57-0.02-3.15-0.08-4.74-0.14
				c-0.26,0.55-0.43,1.07-0.43,1.5C87.19,50.4,92.97,50.4,98.75,50.4z"/>
			<path class="st3" d="M104.74,41.37c-2.31-0.53-5.48-2.28-7.6-2.55c-2.61-0.33-6.2,0.91-8.82,1.3
				C94.48,43.04,97.81,42.14,104.74,41.37z"/>
			<path class="st3" d="M103.62,46.11c1.89-1.16,3.79-2.33,5.68-3.49c-1.08,0-2.27-0.12-3.35,0c-1.29,0.1-2.71,0.75-3.95,1.1
				C102.2,44.33,103.13,45.66,103.62,46.11z"/>
			<path class="st3" d="M121.67,41.47c4.38,0.33,5.25,0.03,9.19-1.95c7.23-3.64,14.57-4.84,22.55-6.59c-8.29,0-17.26-0.98-25.48,0
				c-4.46,0.53-19.57,2.13-19.85,7.39C110.72,42.05,118.49,41.23,121.67,41.47z"/>
			<path class="st3" d="M160.8,35.13c-7.44,0.49-13.33,2.22-20.45,4.42c1.95,1.65,5.83,0.17,7.45,1.64c2.44,2.2-0.3,6-0.66,8.17
				c-0.88,5.3,1.57,10.29,6.71,5.82c0.48-0.42,0.98-0.9,1.49-1.4c3.78-6.24,7.56-12.54,11.33-18.88
				C164.78,34.92,162.85,34.99,160.8,35.13z"/>
		</g>
	</g>
	<line class="st4" x1="447.78" y1="193.98" x2="935.27" y2="193.98"/>
</g>
</svg>
